<svg width="24" height="24" viewBox="0 0 800 800" fill="none"
    xmlns="http://www.w3.org/2000/svg">
    <path d="M18.3333 591H606.667C627.738 591 647.951 599.347 662.882 614.216C677.813 629.084 686.245 649.262 686.333 670.333C686.333 691.462 677.94 711.726 663 726.666C648.059 741.607 627.796 750 606.667 750H18.3333" stroke="grey" stroke-width="63.6667" stroke-miterlimit="10" />
    <path d="M81.6667 591C102.567 612.173 114.505 640.586 115 670.333C114.488 700.175 102.559 728.686 81.6667 750" stroke="grey" stroke-width="63.6667" stroke-miterlimit="10" />
    <path d="M781.667 591H193.333C172.204 591 151.941 582.607 137.001 567.666C122.06 552.726 113.667 532.462 113.667 511.333C114.103 490.495 122.688 470.657 137.582 456.075C152.475 441.493 172.49 433.329 193.333 433.333H781.667" stroke="grey" stroke-width="63.6667" stroke-miterlimit="10" />
    <path d="M718.333 591C697.835 569.542 686.397 541.009 686.397 511.333C686.397 481.658 697.835 453.125 718.333 431.667" stroke="grey" stroke-width="63.6667" stroke-miterlimit="10" />
    <path d="M559 246.333C559 339 495.333 481.667 400 413C304.667 479.667 241 337.667 241 246.333C241 155 336.333 113 400 179.667C463.667 111.667 559 153.333 559 246.333Z" stroke="grey" stroke-width="63.6667" stroke-miterlimit="10" />
    <path d="M336.333 50C369.667 50 400 83.3333 400 145.333" stroke="grey" stroke-width="63.6667" stroke-miterlimit="10" />
</svg>